<?xml version="1.0" encoding="UTF-8"?>
<!-- Generator: Adobe Illustrator 27.6.1, SVG Export Plug-In . SVG Version: 6.00 Build 0)  -->
<svg version="1.1" id="Layer_1" xmlns="http://www.w3.org/2000/svg" xmlns:xlink="http://www.w3.org/1999/xlink" x="0px" y="0px" viewBox="0 0 216 180" style="enable-background:new 0 0 216 180;" xml:space="preserve">
<style type="text/css">
	.st0{fill:#F15B31;}
	.st1{fill:#CDDA29;}
	.st2{fill:#00589C;}
	.st3{fill:#EE3972;}
</style>
<g>
	<g>
		<path class="st0" d="M42.7,135.1c-1.2,0-2,1.1-2,2.2v8l-7.1-8.9l0,0l0,0l-0.1-0.1c-0.6-0.6-1-0.9-2-0.9c-1.3,0-2,0.7-2,2.2v13.4    c0,1.4,1.1,2.2,2.1,2.2c1.2,0,2-0.9,2-2.2V143l7.1,9l0,0l0,0c0.8,0.8,1.3,1,2.3,1h0.1l0.1,0c1.4-0.4,1.6-1.4,1.6-2.1v-13.6    C44.9,136.2,43.8,135.1,42.7,135.1z"/>
		<path class="st0" d="M58.3,148.9h-6.9v-2.6H57c1.4,0,2.1-1,2.1-2.1c0-1-0.7-2.1-2.1-2.1h-5.6v-2.6h6.5c1.4,0,2.1-1,2.1-2.1    c0-1-0.7-2.1-2.1-2.1h-8.7c-1.1,0-2,0.9-2,2V151c0,1.1,0.9,2,2,2h9.1c0.9,0,1.4-0.3,1.6-0.6c0.4-0.4,0.6-0.9,0.6-1.4    C60.5,150,59.8,148.9,58.3,148.9z"/>
		<path class="st0" d="M86.3,136.1c-0.4-0.5-1-0.9-1.7-0.9c-0.9,0-1.6,0.5-1.9,1.4l-3.2,8.8l-3.8-8.9c-0.4-0.9-1-1.4-1.8-1.4    c-0.8,0-1.5,0.6-1.9,1.5l-3.8,8.8l-3.1-8.8c-0.3-0.9-1-1.4-1.9-1.4c-0.7,0-1.4,0.3-1.7,0.9c-0.4,0.5-0.5,1.2-0.2,1.9l4.7,13.2    c0.4,1,0.9,2,2.1,2c1.3,0,1.8-1,2.2-1.9l3.6-8.3l3.7,8.5l0.1,0.1c0.5,0.8,0.9,1.6,2,1.6c1.2,0,1.7-0.8,2.1-2.1l4.8-13    C86.8,137.3,86.7,136.6,86.3,136.1z"/>
		<path class="st0" d="M119.1,136.1c-0.4-0.5-1-0.9-1.7-0.9c-0.9,0-1.6,0.5-1.9,1.4l-3.2,8.8l-3.8-8.9c-0.4-0.9-1-1.4-1.8-1.4    c-0.8,0-1.5,0.6-1.9,1.5l-3.8,8.8l-3.1-8.8c-0.3-0.9-1-1.4-1.9-1.4c-0.7,0-1.4,0.3-1.7,0.9c-0.4,0.5-0.5,1.2-0.2,1.9l4.7,13.2    c0.4,1,0.9,2,2.1,2c1.3,0,1.8-1,2.2-1.9l3.6-8.3l3.7,8.5l0.1,0.1c0.5,0.8,0.9,1.6,2,1.6c1.2,0,1.7-0.8,2.1-2.1l4.8-13    C119.6,137.3,119.5,136.6,119.1,136.1z"/>
		<path class="st0" d="M129.7,134.7L129.7,134.7L129.7,134.7c-4.8,0-9.6,3.2-9.6,9.4c0,6,4.6,9.2,9.2,9.2c0.1,0,0.3,0,0.4,0    c0,0,0,0,0,0c4.5,0,9.1-3.2,9.1-9.2C138.8,138,134.1,134.9,129.7,134.7z M134.6,144.1c0,3.4-2.6,5.2-5.3,5.2    c-2.6,0-5.2-1.8-5.2-5.2s2.6-5.2,5.2-5.2C132,138.8,134.6,140.6,134.6,144.1z"/>
		<path class="st0" d="M155,149.7l-2.8-3.5c2.5-1.3,3.2-4,2.8-6.2c-0.4-2.2-2.2-4.8-5.8-4.8h-6.4c-1.1,0-1.9,0.9-1.9,2V151    c0,1.4,1,2.1,2.1,2.1c1.1,0,2.1-0.7,2.1-2.1v-3.9h3l3.5,5c0.5,0.6,1.2,1,1.9,1c0.8,0,1.5-0.4,1.9-1.1    C155.6,151.3,155.5,150.4,155,149.7z M151.1,141.2c0,1-0.6,2.1-1.9,2.1H145v-4.1h4.2c0.6,0,1.1,0.2,1.5,0.6    C150.9,140.2,151.1,140.7,151.1,141.2z"/>
		<path class="st0" d="M167.1,148.9H161v-11.6c0-1.1-0.9-2-1.9-2c-1.1,0-2,0.9-2,2v13.8c0,1.1,0.9,2,2,2h8c1.5,0,2.3-1,2.3-2.1    C169.4,149.9,168.6,148.9,167.1,148.9z"/>
		<path class="st0" d="M185.2,138.1c-1.6-1.8-3.9-2.8-6.6-2.8h-5.5c-1,0-2.2,0.8-2.2,2V151c0,1.4,1.1,2,2.2,2h5.8    c5.6,0,8.5-4.5,8.5-8.9C187.3,141.9,186.5,139.7,185.2,138.1z M183.1,144.1c0,1.3-0.4,2.6-1.2,3.5c-0.8,1-2,1.5-3.4,1.5h-3.5v-9.8    h3.5C181.7,139.3,183.1,141.7,183.1,144.1z"/>
		<path class="st0" d="M9.1,159.3H3.5c-1.3,0-2.1,1.1-2.1,2.2V175c0,1.4,1.1,2.2,2.1,2.2c1.2,0,2-0.9,2-2.2v-2.7h3.5    c4.2,0,6.5-3.2,6.5-6.4C15.5,161.3,12.2,159.3,9.1,159.3z M11.5,165.9c0,1.3-1.1,2.4-2.4,2.4H5.5v-5h3.5    C10.4,163.3,11.5,164.5,11.5,165.9z"/>
		<path class="st0" d="M33.7,174.2l-6.8-13.6c-0.3-0.8-1.1-1.3-1.9-1.3s-1.6,0.5-2,1.3L16,174.2c-0.6,1.3,0,2.5,1,3l0.1,0l0.1,0    c0.2,0,0.5,0.1,0.7,0.1c0.9,0,1.7-0.4,2-1.2l0.9-1.8h8.3l0.9,1.9c0.3,0.7,1,1.1,1.7,1.1c0.8,0,1.5-0.4,1.9-1.1    C34,175.6,34,174.8,33.7,174.2z M26.9,170.1h-4.1l2.1-4.3L26.9,170.1z"/>
		<path class="st0" d="M49.2,173.9l-2.8-3.5c2.5-1.3,3.2-4,2.8-6.2c-0.4-2.2-2.2-4.8-5.8-4.8h-6.4c-1.1,0-2,0.9-2,2v13.7    c0,1.4,1,2.1,2.1,2.1c1.1,0,2.1-0.7,2.1-2.1v-3.9h3l3.5,5c0.5,0.6,1.2,1,1.9,1c0.8,0,1.5-0.4,1.9-1.1    C49.8,175.4,49.7,174.6,49.2,173.9z M45.2,165.4c0,1-0.6,2.1-1.9,2.1h-4.2v-4.1h4.2c0.6,0,1.1,0.2,1.5,0.6    C45.1,164.4,45.2,164.9,45.2,165.4z"/>
		<path class="st0" d="M65.7,174l-5.4-6.5c0.6-0.6,1.1-1.2,1.7-1.7c0.9-0.9,1.8-1.8,2.7-2.8c0.4-0.4,0.6-0.9,0.6-1.4    c0-0.5-0.2-1-0.7-1.4c-0.4-0.4-1-0.7-1.5-0.7c-0.5,0-1,0.2-1.5,0.7l-6.1,6.3v-4.9c0-1.4-1-2.1-2.1-2.1c-0.5,0-1.1,0.2-1.4,0.5    c-0.4,0.4-0.7,0.9-0.7,1.6v13.8c0,1.3,1.1,2,2.1,2c1,0,2.1-0.7,2.1-2V172l1.8-2l5,6.4c0.4,0.5,0.9,0.9,1.6,0.9    c0.9,0,1.7-0.5,2.1-1.2C66.1,175.7,66.4,174.9,65.7,174z"/>
		<path class="st0" d="M81.7,166.3c-2.3-0.6-3.7-1.1-3.5-2.3c0.2-1.1,1.4-1.4,2.4-1.4c1.1,0,2.4,0.3,3.2,0.9    c0.3,0.2,0.7,0.4,1.1,0.4c0.8,0,1.5-0.5,1.8-1.3c0.3-0.8,0-1.7-0.7-2.3c-1.3-1-3.1-1.5-5-1.5c-3.1,0-6.4,1.5-6.8,4.8    c-0.5,4.5,3.1,5.5,6.1,6.3c1.8,0.5,3.4,1,3.6,2.1c-0.2,1.2-1,1.8-2.6,1.8c-1.5,0-3.2-0.6-4-1.2c-0.4-0.3-0.8-0.5-1.3-0.5    c-0.5,0-1,0.2-1.5,0.7l0,0l0,0c-0.6,0.8-0.6,2.2,0.4,3c1.4,1.1,3.6,1.8,6,1.8c3.3,0,7.1-1.5,7.3-5.7C88,168,84.5,167.1,81.7,166.3    z"/>
		<path class="st0" d="M98.8,158.9L98.8,158.9L98.8,158.9c-4.8,0-9.6,3.2-9.6,9.4c0,6,4.6,9.2,9.2,9.2c0.1,0,0.3,0,0.4,0    c0,0,0,0,0,0c4.5,0,9.1-3.2,9.1-9.2C107.9,162.1,103.1,159.1,98.8,158.9z M103.7,168.3c0,3.4-2.6,5.2-5.3,5.2    c-2.6,0-5.2-1.8-5.2-5.2s2.6-5.2,5.2-5.2C101.1,163,103.7,164.8,103.7,168.3z"/>
		<path class="st0" d="M119.9,173h-6.1v-11.6c0-1.1-0.9-2-1.9-2c-1.1,0-2,0.9-2,2v13.8c0,1.1,0.9,2,2,2h8c1.5,0,2.3-1,2.3-2.1    C122.1,174.1,121.4,173,119.9,173z"/>
		<path class="st0" d="M137.1,159.4c-1,0-2.1,0.8-2.1,2.2v8.8c0,2.2-1.8,3.2-3.5,3.2c-1.8,0-3.7-1.1-3.7-3.2v-8.8    c0-1.4-1-2.2-2.1-2.2c-0.5,0-1.1,0.2-1.4,0.6c-0.3,0.3-0.7,0.8-0.7,1.6v8.8c0,3.5,2.4,7.3,7.8,7.3s7.8-3.8,7.8-7.3v-8.8    C139.2,160.1,138.1,159.4,137.1,159.4z"/>
		<path class="st0" d="M153.8,159.4h-11.4c-1.4,0-2.1,1-2.1,2s0.7,2,2.1,2h3.7v11.7c0,1.4,1,2.1,2.1,2.1c1,0,2.1-0.7,2.1-2.1v-11.7    h3.5c1.4,0,2.1-1,2.1-2S155.2,159.4,153.8,159.4z"/>
		<path class="st0" d="M159.5,159.4c-1.1,0-2.1,0.7-2.1,2v13.8c0,1.3,1,2,2.1,2c1,0,2.1-0.7,2.1-2v-13.8    C161.6,160.1,160.5,159.4,159.5,159.4z"/>
		<path class="st0" d="M173.2,158.9L173.2,158.9L173.2,158.9c-4.8,0-9.6,3.2-9.6,9.4c0,6,4.6,9.2,9.2,9.2c0.1,0,0.3,0,0.4,0    c0,0,0,0,0,0c4.5,0,9.1-3.2,9.1-9.2C182.3,162.1,177.6,159.1,173.2,158.9z M178.1,168.3c0,3.4-2.6,5.2-5.3,5.2    c-2.6,0-5.2-1.8-5.2-5.2s2.6-5.2,5.2-5.2C175.5,163,178.1,164.8,178.1,168.3z"/>
		<path class="st0" d="M197.5,159.3c-1.2,0-2,1.1-2,2.2v8l-7.1-8.9l0,0l0,0l-0.1-0.1c-0.6-0.6-1-0.9-2-0.9c-1.3,0-2,0.7-2,2.2V175    c0,1.4,1.1,2.2,2.1,2.2c1.2,0,2-0.9,2-2.2v-7.9l7.1,9l0,0l0,0c0.8,0.8,1.3,1,2.3,1h0.1l0.1,0c1.4-0.4,1.6-1.4,1.6-2.1v-13.6    C199.7,160.3,198.6,159.3,197.5,159.3z"/>
		<path class="st0" d="M209.3,166.3c-2.3-0.6-3.7-1.1-3.5-2.3c0.2-1.1,1.4-1.4,2.4-1.4c1.1,0,2.4,0.3,3.2,0.9    c0.3,0.2,0.7,0.4,1.1,0.4c0.8,0,1.5-0.5,1.8-1.3c0.3-0.8,0-1.7-0.7-2.3c-1.3-1-3.1-1.5-5-1.5c-3.1,0-6.4,1.5-6.8,4.8    c-0.5,4.5,3.1,5.5,6.1,6.3c1.8,0.5,3.4,1,3.6,2.1c-0.2,1.2-1,1.8-2.6,1.8c-1.5,0-3.2-0.6-4-1.2c-0.4-0.3-0.8-0.5-1.3-0.5    c-0.5,0-1,0.2-1.5,0.7l0,0l0,0c-0.6,0.8-0.6,2.2,0.4,3c1.4,1.1,3.6,1.8,6,1.8c3.3,0,7.1-1.5,7.3-5.7    C215.6,168,212.1,167.1,209.3,166.3z"/>
	</g>
	<g>
		<g id="XMLID_00000156557433582902808750000008549389738009249425_">
			<g id="XMLID_00000114059546315993072950000007518309131644228751_">
				<path id="XMLID_00000091000750109967626970000009829394398253306278_" class="st1" d="M120.7,39.3c7.5-4.9,16.5,25.5,25.5,25.5      s16.8-30.2,25.5-25.5c6.8,3.7-22.8,26.4-10.7,38.5c6.1,6.1,36.9,9.5,35,16.8c-2.3,8.7-30.1-4.1-36,2.8c-5.9,6.8,6,21.5-2.3,25.1      c-9.3,4-11.6-17.6-15.1-34.8C138.5,67.7,113.5,44,120.7,39.3z"/>
				<ellipse id="XMLID_00000023266640053986836750000005032719806032484775_" class="st1" cx="146.2" cy="52.9" rx="6.5" ry="7.5"/>
			</g>
			<g id="XMLID_00000029740622423507477020000011057773294179460504_">
				<path id="XMLID_00000181810227377269877880000014909614708199622834_" class="st2" d="M102.4,53.3c6.8,0.4-1.4,22.8,4.1,26.8      s23.7-10.9,26.8-4.1c2.5,5.3-25.6,5.9-23.6,18.6c1,6.4,18.2,22.2,13.7,25.8c-5.3,4.3-16.4-15.9-23.1-14.3      c-6.6,1.5-6,15.7-12.6,14.2c-7.4-1.7,0.8-15.9,6.3-27.8C100.5,78.5,95.9,53,102.4,53.3z"/>
				
					<ellipse id="XMLID_00000056422513481903402790000005936026654018078103_" transform="matrix(0.5917 -0.8062 0.8062 0.5917 -13.1689 119.9205)" class="st2" cx="111.8" cy="73" rx="5.7" ry="4.9"/>
			</g>
			<g id="XMLID_00000013151387801308834140000013515384117241486239_">
				<path id="XMLID_00000054954198487963624090000005719483707472495801_" class="st0" d="M95.5,39.3C88,34.3,79,64.8,70,64.8      S53.2,34.5,44.5,39.3C37.7,43,67.3,65.7,55.2,77.8c-6.1,6.1-36.9,9.5-35,16.8c2.3,8.7,30.1-4.1,36,2.8c5.9,6.8-6,21.5,2.3,25.1      c9.3,4,11.6-17.6,15.1-34.8C77.8,67.7,102.8,44,95.5,39.3z"/>
				<ellipse id="XMLID_00000157286087048696144350000017602650563879330208_" class="st0" cx="70" cy="52.9" rx="6.5" ry="7.5"/>
			</g>
			<polygon id="XMLID_00000010999031900211007470000007517996059712837012_" class="st0" points="109.2,1 114,10.8 124.8,12.3      117,20 118.9,30.7 109.2,25.6 99.5,30.7 101.4,20 93.5,12.3 104.3,10.8    "/>
			<polygon id="XMLID_00000111877547507929508480000004085674185553764252_" class="st2" points="79.2,26.8 81,30.4 84.9,31      82,33.7 82.7,37.6 79.2,35.8 75.7,37.6 76.4,33.7 73.5,31 77.5,30.4    "/>
			<polygon id="XMLID_00000042697730796181065690000010346538033831851673_" class="st1" points="107.8,35.5 109.6,39 113.5,39.6      110.7,42.3 111.3,46.2 107.8,44.4 104.3,46.2 105,42.3 102.2,39.6 106.1,39    "/>
			<polygon id="XMLID_00000081626186557688020550000008868768660549141166_" class="st3" points="139.7,30.7 141.1,33.6 144.3,34      142,36.2 142.5,39.3 139.7,37.9 136.9,39.3 137.5,36.2 135.2,34 138.3,33.6    "/>
			
				<ellipse id="XMLID_00000078737989823630383750000015345033858712284316_" transform="matrix(0.1602 -0.9871 0.9871 0.1602 86.6352 149.9387)" class="st2" cx="131.4" cy="24.1" rx="2.9" ry="2.9"/>
			<circle id="XMLID_00000113312763306500835380000013963615752788375996_" class="st0" cx="156.3" cy="36.1" r="2.3"/>
			<circle id="XMLID_00000021114630112871323240000012802289547792051641_" class="st1" cx="89" cy="27" r="2.3"/>
		</g>
	</g>
</g>
</svg>