<?xml version="1.0" encoding="UTF-8"?>
<!-- Generator: Adobe Illustrator 27.6.1, SVG Export Plug-In . SVG Version: 6.00 Build 0)  -->
<svg version="1.1" id="Layer_1" xmlns="http://www.w3.org/2000/svg" xmlns:xlink="http://www.w3.org/1999/xlink" x="0px" y="0px" viewBox="0 0 432 126" style="enable-background:new 0 0 432 126;" xml:space="preserve">
<style type="text/css">
	.st0{fill:#CDDA29;}
	.st1{fill:#00589C;}
	.st2{fill:#F15B31;}
	.st3{fill:#EE3972;}
</style>
<g>
	<g>
		<g id="XMLID_00000156557433582902808750000008549389738009249425_">
			<g id="XMLID_00000114059546315993072950000007518309131644228751_">
				<path id="XMLID_00000091000750109967626970000009829394398253306278_" class="st0" d="M101,40.3c7.5-4.9,16.5,25.5,25.5,25.5      c9,0,16.8-30.2,25.5-25.5c6.8,3.7-22.8,26.4-10.7,38.5c6.1,6.1,36.9,9.5,35,16.8c-2.3,8.7-30.1-4.1-36,2.8      c-5.9,6.8,6,21.5-2.3,25.1c-9.3,4-11.6-17.6-15.1-34.8C118.8,68.7,93.8,45.1,101,40.3z"/>
				<ellipse id="XMLID_00000023266640053986836750000005032719806032484775_" class="st0" cx="126.5" cy="54" rx="6.5" ry="7.5"/>
			</g>
			<g id="XMLID_00000029740622423507477020000011057773294179460504_">
				<path id="XMLID_00000181810227377269877880000014909614708199622834_" class="st1" d="M82.7,54.4c6.8,0.4-1.4,22.8,4.1,26.8      c5.5,4,23.7-10.9,26.8-4.1c2.5,5.3-25.6,5.9-23.6,18.6c1,6.4,18.2,22.2,13.7,25.8c-5.3,4.3-16.4-15.9-23.1-14.3      c-6.6,1.5-6,15.7-12.6,14.2c-7.4-1.7,0.8-15.9,6.3-27.8C80.8,79.5,76.2,54,82.7,54.4z"/>
				
					<ellipse id="XMLID_00000056422513481903402790000005936026654018078103_" transform="matrix(0.5917 -0.8062 0.8062 0.5917 -22.0699 104.4801)" class="st1" cx="92.1" cy="74" rx="5.7" ry="4.9"/>
			</g>
			<g id="XMLID_00000013151387801308834140000013515384117241486239_">
				<path id="XMLID_00000054954198487963624090000005719483707472495801_" class="st2" d="M75.8,40.3c-7.5-4.9-16.5,25.5-25.5,25.5      c-9,0-16.8-30.2-25.5-25.5C18,44,47.6,66.7,35.5,78.8c-6.1,6.1-36.9,9.5-35,16.8c2.3,8.7,30.1-4.1,36,2.8      c5.9,6.8-6,21.5,2.3,25.1c9.3,4,11.6-17.6,15.1-34.8C58.1,68.7,83.1,45.1,75.8,40.3z"/>
				<ellipse id="XMLID_00000157286087048696144350000017602650563879330208_" class="st2" cx="50.3" cy="54" rx="6.5" ry="7.5"/>
			</g>
			<polygon id="XMLID_00000010999031900211007470000007517996059712837012_" class="st2" points="89.5,2 94.3,11.8 105.1,13.4      97.3,21 99.2,31.8 89.5,26.7 79.8,31.8 81.7,21 73.8,13.4 84.7,11.8    "/>
			<polygon id="XMLID_00000111877547507929508480000004085674185553764252_" class="st1" points="59.5,27.9 61.3,31.5 65.2,32      62.3,34.8 63,38.7 59.5,36.8 56,38.7 56.7,34.8 53.9,32 57.8,31.5    "/>
			<polygon id="XMLID_00000042697730796181065690000010346538033831851673_" class="st0" points="88.2,36.5 89.9,40.1 93.8,40.6      91,43.4 91.7,47.3 88.2,45.5 84.7,47.3 85.3,43.4 82.5,40.6 86.4,40.1    "/>
			<polygon id="XMLID_00000081626186557688020550000008868768660549141166_" class="st3" points="120,31.8 121.4,34.6 124.6,35.1      122.3,37.3 122.8,40.4 120,38.9 117.2,40.4 117.8,37.3 115.5,35.1 118.6,34.6    "/>
			
				<ellipse id="XMLID_00000078737989823630383750000015345033858712284316_" transform="matrix(0.1602 -0.9871 0.9871 0.1602 69.0446 131.3962)" class="st1" cx="111.7" cy="25.1" rx="2.9" ry="2.9"/>
			<circle id="XMLID_00000113312763306500835380000013963615752788375996_" class="st2" cx="136.6" cy="37.2" r="2.3"/>
			<circle id="XMLID_00000021114630112871323240000012802289547792051641_" class="st0" cx="69.3" cy="28.1" r="2.3"/>
		</g>
	</g>
</g>
<g>
	<path class="st2" d="M196.1,38.4c-1.4,0-2.4,1.3-2.4,2.5v9.3l-8.3-10.4l0,0l0,0l-0.1-0.1c-0.7-0.7-1.1-1.1-2.3-1.1   c-1.5,0-2.3,0.9-2.3,2.6v15.6c0,1.7,1.3,2.5,2.5,2.5c1.4,0,2.4-1,2.4-2.5v-9.2l8.3,10.5l0,0l0,0c0.9,0.9,1.6,1.1,2.7,1.1h0.1l0.1,0   c1.6-0.5,1.9-1.6,1.9-2.5V40.9C198.7,39.6,197.4,38.4,196.1,38.4z"/>
	<path class="st2" d="M214.4,54.4h-8v-3.1h6.5c1.6,0,2.5-1.2,2.5-2.4c0-1.2-0.8-2.4-2.5-2.4h-6.5v-3.1h7.5c1.6,0,2.5-1.2,2.5-2.4   c0-1.2-0.9-2.4-2.5-2.4h-10.1c-1.3,0-2.3,1-2.3,2.3v16c0,1.3,1,2.3,2.3,2.3h10.6c1,0,1.6-0.4,1.9-0.7c0.4-0.4,0.7-1,0.7-1.6   C217,55.7,216.1,54.4,214.4,54.4z"/>
	<path class="st2" d="M247,39.5c-0.4-0.6-1.2-1-2-1c-1,0-1.9,0.6-2.3,1.6l-3.7,10.2L234.7,40c-0.4-1-1.2-1.6-2.1-1.6   c-0.9,0-1.7,0.7-2.2,1.7L226,50.4l-3.7-10.2c-0.3-1-1.2-1.6-2.3-1.6c-0.8,0-1.6,0.4-2,1c-0.4,0.6-0.5,1.4-0.3,2.3l5.5,15.4   c0.4,1.1,1,2.3,2.5,2.3c1.5,0,2.1-1.1,2.5-2.2l4.2-9.7l4.4,9.9l0.1,0.1c0.5,1,1,1.8,2.3,1.8c1.4,0,2-1,2.5-2.5l5.6-15.1   C247.6,41,247.5,40.1,247,39.5z"/>
	<path class="st2" d="M285.3,39.5c-0.4-0.6-1.2-1-2-1c-1,0-1.9,0.6-2.3,1.6l-3.7,10.2L272.9,40c-0.4-1-1.2-1.6-2.1-1.6   c-0.9,0-1.7,0.7-2.2,1.7l-4.4,10.2l-3.7-10.2c-0.3-1-1.2-1.6-2.3-1.6c-0.8,0-1.6,0.4-2,1c-0.4,0.6-0.5,1.4-0.3,2.3l5.5,15.4   c0.4,1.1,1,2.3,2.5,2.3c1.5,0,2.1-1.1,2.5-2.2l4.2-9.7l4.4,9.9l0.1,0.1c0.5,1,1,1.8,2.3,1.8c1.4,0,2-1,2.5-2.5l5.6-15.1   C285.8,41,285.7,40.1,285.3,39.5z"/>
	<path class="st2" d="M297.6,37.9L297.6,37.9L297.6,37.9c-5.6,0-11.2,3.8-11.2,10.9c0,7.1,5.4,10.7,10.7,10.7c0.2,0,0.3,0,0.5,0   c0,0,0,0,0,0c5.3,0,10.7-3.7,10.7-10.7C308.3,41.7,302.7,38.2,297.6,37.9z M303.4,48.8c0,4-3.1,6.1-6.1,6.1c-3,0-6-2.1-6-6.1   s3-6.1,6-6.1C300.3,42.7,303.4,44.8,303.4,48.8z"/>
	<path class="st2" d="M327.2,55.4l-3.3-4c2.9-1.5,3.7-4.7,3.2-7.2c-0.5-2.6-2.6-5.6-6.8-5.6h-7.5c-1.3,0-2.3,1-2.3,2.3v16   c0,1.6,1.2,2.4,2.4,2.4c1.2,0,2.5-0.8,2.5-2.5v-4.5h3.5l4.1,5.8c0.6,0.7,1.4,1.1,2.2,1.1c0.9,0,1.8-0.5,2.2-1.3   C327.8,57.2,327.8,56.3,327.2,55.4z M322.6,45.5c0,1.2-0.7,2.4-2.3,2.4h-4.9v-4.8h4.9c0.7,0,1.3,0.2,1.7,0.7   C322.4,44.3,322.6,44.9,322.6,45.5z"/>
	<path class="st2" d="M341.3,54.4h-7.1V40.9c0-1.2-1-2.3-2.2-2.3c-1.3,0-2.4,1-2.4,2.3V57c0,1.3,1,2.3,2.4,2.3h9.3   c1.8,0,2.7-1.2,2.7-2.4C344,55.7,343,54.4,341.3,54.4z"/>
	<path class="st2" d="M362.3,41.9c-1.9-2.1-4.5-3.2-7.6-3.2h-6.5c-1.2,0-2.5,1-2.5,2.3v16c0,1.6,1.3,2.3,2.5,2.3h6.7   c6.5,0,9.9-5.2,9.9-10.3C364.9,46.2,364,43.7,362.3,41.9z M359.9,48.9c0,1.5-0.5,3-1.3,4c-1,1.2-2.3,1.8-3.9,1.8h-4.1V43.2h4.1   C358.3,43.2,359.9,46.1,359.9,48.9z"/>
	<path class="st2" d="M188.8,66.6h-6.5c-1.5,0-2.5,1.3-2.5,2.5V85c0,1.6,1.3,2.5,2.5,2.5c1.4,0,2.4-1,2.4-2.5v-3.1h4.1   c5,0,7.5-3.8,7.5-7.5C196.4,69,192.4,66.6,188.8,66.6z M191.6,74.3c0,1.5-1.3,2.8-2.8,2.8h-4.1v-5.9h4.1   C190.4,71.3,191.6,72.6,191.6,74.3z"/>
	<path class="st2" d="M217.5,83.9l-7.9-15.8c-0.4-0.9-1.3-1.5-2.2-1.5s-1.8,0.6-2.3,1.5l-8.1,15.8c-0.7,1.6,0,2.9,1.1,3.5l0.1,0   l0.1,0c0.3,0.1,0.5,0.1,0.8,0.1c1.1,0,1.9-0.5,2.4-1.4l1-2.1h9.7l1.1,2.2c0.4,0.8,1.1,1.3,2,1.3c0.9,0,1.8-0.5,2.2-1.3   C217.9,85.6,217.9,84.7,217.5,83.9z M209.6,79.2h-4.8l2.5-5L209.6,79.2z"/>
	<path class="st2" d="M235.6,83.6l-3.3-4c2.9-1.5,3.7-4.7,3.2-7.2c-0.5-2.6-2.6-5.6-6.8-5.6h-7.5c-1.3,0-2.3,1-2.3,2.3v16   c0,1.6,1.2,2.4,2.4,2.4c1.2,0,2.5-0.8,2.5-2.5v-4.5h3.5l4.1,5.8c0.6,0.7,1.4,1.1,2.2,1.1c0.9,0,1.8-0.5,2.2-1.3   C236.3,85.4,236.2,84.5,235.6,83.6z M231,73.7c0,1.2-0.7,2.4-2.3,2.4h-4.9v-4.8h4.9c0.7,0,1.3,0.2,1.7,0.7   C230.8,72.5,231,73.1,231,73.7z"/>
	<path class="st2" d="M254.8,83.7l-6.3-7.6c0.6-0.7,1.3-1.4,2-2c1.1-1.1,2.1-2.2,3.1-3.3c0.5-0.5,0.7-1.1,0.7-1.7   c0-0.6-0.3-1.2-0.8-1.7c-0.5-0.5-1.1-0.8-1.7-0.8c-0.6,0-1.2,0.3-1.8,0.8l-7.2,7.4v-5.7c0-1.6-1.2-2.4-2.4-2.4   c-0.6,0-1.2,0.2-1.7,0.6c-0.5,0.4-0.8,1.1-0.8,1.8v16.1c0,1.5,1.2,2.3,2.4,2.3c1.2,0,2.5-0.8,2.5-2.3v-3.7l2.1-2.3l5.8,7.4   c0.4,0.6,1.1,1,1.9,1c1,0,2-0.6,2.4-1.4C255.4,85.8,255.7,84.8,254.8,83.7z"/>
	<path class="st2" d="M273.5,74.7c-2.7-0.7-4.3-1.3-4-2.7c0.3-1.3,1.7-1.6,2.8-1.6c1.3,0,2.8,0.4,3.8,1c0.4,0.3,0.8,0.4,1.3,0.4   c0.9,0,1.7-0.6,2.1-1.5c0.3-0.9,0-1.9-0.9-2.6c-1.5-1.1-3.6-1.8-5.8-1.8c-3.6,0-7.5,1.7-7.9,5.6c-0.6,5.2,3.7,6.4,7.1,7.3   c2.1,0.6,4,1.1,4.1,2.4c-0.2,1.4-1.2,2.1-3.1,2.1c-1.8,0-3.7-0.7-4.7-1.4c-0.5-0.4-1-0.6-1.5-0.6c-0.6,0-1.2,0.3-1.8,0.9l0,0l0,0   c-0.7,1-0.7,2.6,0.5,3.5c1.6,1.3,4.3,2.1,6.9,2.1c3.8,0,8.3-1.8,8.5-6.7C280.9,76.8,276.8,75.6,273.5,74.7z"/>
	<path class="st2" d="M293.4,66.1L293.4,66.1L293.4,66.1c-5.6,0-11.2,3.8-11.2,10.9c0,7.1,5.4,10.7,10.7,10.7c0.2,0,0.3,0,0.5,0   c0,0,0,0,0,0c5.3,0,10.7-3.7,10.7-10.7C304.1,69.9,298.6,66.4,293.4,66.1z M299.2,77c0,4-3.1,6.1-6.1,6.1c-3,0-6-2.1-6-6.1   s3-6.1,6-6.1C296.1,70.9,299.2,73,299.2,77z"/>
	<path class="st2" d="M318,82.6H311V69.1c0-1.2-1-2.3-2.2-2.3c-1.3,0-2.4,1-2.4,2.3v16.1c0,1.3,1,2.3,2.4,2.3h9.3   c1.8,0,2.7-1.2,2.7-2.4C320.7,83.9,319.8,82.6,318,82.6z"/>
	<path class="st2" d="M338.2,66.7c-1.2,0-2.5,0.9-2.5,2.5v10.2c0,2.6-2.1,3.7-4.1,3.7c-2.2,0-4.3-1.3-4.3-3.7V69.3   c0-1.7-1.2-2.5-2.4-2.5c-0.6,0-1.2,0.2-1.7,0.6c-0.4,0.3-0.8,0.9-0.8,1.9v10.2c0,4.1,2.8,8.5,9.1,8.5c6.2,0,9.1-4.4,9.1-8.5V69.3   C340.6,67.5,339.4,66.7,338.2,66.7z"/>
	<path class="st2" d="M357.6,66.7h-13.3c-1.6,0-2.4,1.2-2.4,2.4c0,1.2,0.8,2.4,2.4,2.4h4.4v13.7c0,1.6,1.2,2.4,2.4,2.4   c1.2,0,2.5-0.8,2.5-2.4V71.5h4.1c1.6,0,2.5-1.2,2.5-2.4C360.1,67.9,359.3,66.7,357.6,66.7z"/>
	<path class="st2" d="M364.3,66.7c-1.2,0-2.5,0.8-2.5,2.3v16.1c0,1.5,1.2,2.4,2.4,2.4c1.2,0,2.5-0.8,2.5-2.4V69.1   C366.7,67.6,365.5,66.7,364.3,66.7z"/>
	<path class="st2" d="M380.3,66.1L380.3,66.1L380.3,66.1c-5.6,0-11.2,3.8-11.2,10.9c0,7.1,5.4,10.7,10.7,10.7c0.2,0,0.3,0,0.5,0   c0,0,0,0,0,0c5.3,0,10.7-3.7,10.7-10.7C390.9,69.9,385.4,66.4,380.3,66.1z M386,77c0,4-3.1,6.1-6.1,6.1c-3,0-6-2.1-6-6.1   s3-6.1,6-6.1C383,70.9,386,73,386,77z"/>
	<path class="st2" d="M408.6,66.6c-1.4,0-2.4,1.3-2.4,2.5v9.3L397.9,68l0,0l0,0l-0.1-0.1c-0.7-0.7-1.1-1.1-2.3-1.1   c-1.5,0-2.3,0.9-2.3,2.6V85c0,1.7,1.3,2.5,2.5,2.5c1.4,0,2.4-1,2.4-2.5v-9.2l8.3,10.5l0,0l0,0c0.9,0.9,1.6,1.1,2.7,1.1h0.1l0.1,0   c1.6-0.5,1.9-1.6,1.9-2.5V69.1C411.2,67.8,409.9,66.6,408.6,66.6z"/>
	<path class="st2" d="M422.4,74.7c-2.7-0.7-4.3-1.3-4-2.7c0.3-1.3,1.7-1.6,2.8-1.6c1.3,0,2.8,0.4,3.8,1c0.4,0.3,0.8,0.4,1.3,0.4   c0.9,0,1.7-0.6,2.1-1.5c0.3-0.9,0-1.9-0.9-2.6c-1.5-1.1-3.6-1.8-5.8-1.8c-3.6,0-7.5,1.7-7.9,5.6c-0.6,5.2,3.7,6.4,7.1,7.3   c2.1,0.6,4,1.1,4.1,2.4c-0.2,1.4-1.2,2.1-3.1,2.1c-1.8,0-3.7-0.7-4.7-1.4c-0.5-0.4-1-0.6-1.5-0.6c-0.6,0-1.2,0.3-1.8,0.9l0,0l0,0   c-0.7,1-0.7,2.6,0.5,3.5c1.6,1.3,4.3,2.1,6.9,2.1c3.8,0,8.3-1.8,8.5-6.7C429.8,76.8,425.7,75.6,422.4,74.7z"/>
</g>
</svg>